/* XPM */
static char *ff2181943d2b40f2f902d9660b05f744MerlcOzSqP2ksVtM[] = {
/* columns rows colors chars-per-pixel */
"64 64 61 1 ",
"  c black",
". c #010101",
"X c #020202",
"o c gray1",
"O c #040404",
"+ c gray2",
"@ c #060606",
"# c #070707",
"$ c gray3",
"% c #090909",
"& c gray4",
"* c #0B0B0B",
"= c #0C0C0C",
"- c gray5",
"; c #0E0E0E",
": c gray6",
"> c #101010",
", c #111111",
"< c gray7",
"1 c #131313",
"2 c gray8",
"3 c #151515",
"4 c #161616",
"5 c gray9",
"6 c #181818",
"7 c #191919",
"8 c gray10",
"9 c #1B1B1B",
"0 c gray11",
"q c #1D1D1D",
"w c #1E1E1E",
"e c gray12",
"r c #202020",
"t c gray13",
"y c #222222",
"u c #232323",
"i c gray14",
"p c #252525",
"a c gray15",
"s c #272727",
"d c #282828",
"f c gray16",
"g c #2A2A2A",
"h c #2C2C2C",
"j c #2D2D2D",
"k c #2F2F2F",
"l c gray19",
"z c #323232",
"x c #343434",
"c c #353535",
"v c gray22",
"b c #393939",
"n c gray23",
"m c #3F3F3F",
"M c #414141",
"N c gray26",
"B c #515151",
"V c gray35",
"C c #5A5A5A",
"Z c gray38",
"A c #6D6D6D",
/* pixels */
">>&:3&38&:O&>>&:::&:&&&::::&::O:>>:&::&:::>>:&&:&:>:&kM&>&>&&>&:",
"&33&O:t3:&gk&&>&&&&&&:&&&&&:&&8>>&:&&>&&&:::::::&>&&:&:OO:&:&:v>",
"&83:>&:&&Oet&>:&::::>33&&>:&3O>&&&:O::&:&&&&::&&:&&3:&3>>:&3&&&:",
">O:3>O:&::&O:8:>&:&&>3>:>3&&:3O3:>>g3 O:>&:&&&:&&:&:&:3>:O>>::::",
"::&O>:&>:>::&>::&&&&::&:>> kg >&:OOckzg :::&&&&::>:::&:>:>:&&3&&",
":&>:&&:&O:::&O:O:::::&:>&:&8e::>:3&&Ot3>&O::&&:&::O:>>&&O:&3M&:&",
"O&::>:&>:&:&3>::&&:&&&&&3::O8A&&:>&&33Oe::>3::>::e:Oe8&:e &&:&>>",
":::O&>>&>O3:3::&&::&&::&>3O>::&>3&:&&:3:>&::O&:&&O::&&::>::&&:3:",
"&:&&&&>8::&>&>>>:&::&>:::3&&3>:8t&>:Oe>>:>>:O:>:e&&&O:&:8:&&e:&&",
">>>:::>>:3&&>>&&&&&>:::&:3>:>& >:O&&::>::&:::>>:e3&e8&3&&:3O:&::",
">:&::&&&:&:&&>&>&:&8:&&:O:&&:::8:>:&>O&::::>>>>::&&83&>::&8&:>:>",
":&&&::&&&:&&33&>:3O8:&::8>:&&&&::&&&:&&3:::>:&::3&:>::&::O&:>O::",
"&:&:::::&>&:& :&>3&>O:>&:&&:>>>&:&::&:&>:&:::&::8>&::::&&:e&&>>:",
"&&&&&&&:>&:&38&>:>&>&:>&&&:::&:&&:>8:&:&::>>::>3&&>&:>&::&3:&O :",
"::::::::>>: cv >>:&:::&&&:&&&:::&O:3&::&&&::&&>>&:e:&>O>Ok>::>aO",
"&&&::::&:::&:O::>&:::&&:::&&>>&:e:3O:3&&:&&&&::O:>O&>&:&:>&&::&:",
"&&&&&3&&:O:&>8&:::>:3O>&&&::&>>>>:&&:z>>:&:::>3>&:&&&&::&&&:::&&",
":::83a>>:::O&8>:3&O::>O:&&tv >>&>:>:::&>&:>>:&>>&:&::&::::>>3:&:",
"&&:&O::>3&&3>&O:::::O&&33::>3:::8&O:8:>O:&>:&33&:&:&&:::::&>::::",
">&:O::::&:&::>3&3ee >8&ae3&:>&::O>>8:&>>&:3>O>3:&&:&:>:::&&&&&&:",
"&&&>:>&&:3>&O3e&>Ozk:g:O&&:>3:3&:>&>O>>&>&::&&>3&&:&>3:::&::::&&",
"&::>:&&:3>&>>::&&&ee&&&>3t>Oe>&&&&:>&:&:3:O::::::&&&:3&:&:::::&:",
">&&&:&&&&&&&>>:&::O&3O8&O>&:&>&:&:&:::&:&>3::&&:&&>::3:&:::&&&:&",
"&>&3&::8:::&::&&:&:&&>:&>&>&&:>::8&&&::::::&>:&&:&8>>3::&:>>:&:&",
"&&:&::&8:>&::&&:&O>e&:::&&::&&&>&:>:&::&&&::&:&:::>>>::>OaC&::&&",
">&:&>&>:::O&&&:&:&&>>&&>3:&&:&:::&&::&&&:&&&&&::&&:::&O&&:e::>O:",
"&&&>:&a8&:::::>:O8&>:&>:8>&&&&:::&:>>&:3&&&&&::>&&&&:&::&&O::&::",
"&::::Oe>O&>>:>8>: :&:&:::::::&&&:&:>>&:>&::::::&:>::::::::::>&>O",
"&>&>>>:&>>3>&:>:>8&:O:>>&&&::&&:&:&:3>:&&::&&::::::&&&&&:O&:>&:&",
"&>:>:3:>3>>:O&&&>a>&>&O&:&&&:::&:>&&3>:&::&:&&:>&::&&::&::>:::&:",
"::&>&&&>&&&:>3>3 zV &8>>::&:&:&&O>:&::O::::&:&:>&:>::&:>&3tO&:&&",
">::3:&:O::>>e8:::3:::>&:&&>>:&:&>>::>>&::&&::&&::>>:&&::&>e&>:&:",
"::&::&:3:>&:::33>&O:::&&&>:&eeOe>:&::&:&O>>:&:&::33:&&:&3&O>3:&:",
"&&&::&>3>O>&>&O>::>38>&:::&:aa:::&:>&:&:>:&:&&:::&:>:&&3>:&:::&&",
":&&&&&:>&> ::>:&&&:>>:&::::O&:&e::>3:::&m&8a&>>>&::>:&&:>>:&&&:&",
":&:&:&:>&>8::>:::>>&&:::&&>>:::>::33:&::8 kc&>O&&>>&&::O>>::&:::",
"&:&::::>:O3:&:&>&>>::&:&3&::&&::&:>>&::&&>&&O>:::::&:&&:>>&:::&:",
"&&&::::&&:::&&>>&:&&:>&:&O:::&&&&&:&&::&:e:::&&>:&&::&&:8>&&:&&&",
"&&&&&&&O&:c83:&:::&&>>>:::&:>>::::::&:&&8O:>:&&&:&:&&&&&3>&:::::",
":&:::::::O8>>&>>&&&&>>>:&:&:::>3::::&&::88:&&&>:&&&&:&::::&:&:&&",
":&:::::&:>:&::&::&a3&&:&:O::O&::O&>O>:&:::&&&::>3:&&33&>&&&:&&&:",
":&:::&:&&:&:>:&:&&8:::&:&3O:83&>k&>>&O>&>:&::&&&>O:&:V&&&:&:::::",
"&::::&&&:>&:>:O&&&:&:&&&>>::ek >a&&::&:&:::&:::&&>:&&::::&:::&::",
":&>:&&&:>>&&::&:&:&O::&:O:&>&:::&>&&>>O>:&&::::&>3:&3O>&&&&:&:&&",
"&&&:&:&&::O&&::::::>&&:>3O::&3:&&:>:O:&&&:::&&:&&&::&>&&:&&::&&:",
"::&:&::&&&:&:&&&&&>>O:::O:&::O>&>&:&&::O&&::&::&>:&&>&:&&&:&&::&",
">:&>&::&:&&:&&:::&:&:8O::&&:>8:&::&&t8O::&::O:>&O&::O>&::&&:&&&&",
"::&>&:&:&&::::>>:&:&3tO::&:>&3&&&:&&a8&::O&&&>3:::O:&:>&:&&&::&&",
"&::::&&::&&::>:&&:&:&&&&::&::&:::&&:&:&:&:&:&:&::&&&::::&&&:&&:&",
":&::&&:::&:&:>&:&::&&&:&&&&&&&&&&&:&:&:&&&:&:&:&&:&::::&&:&::&&:",
"&:&&&:&&:&:&:::::&&::&::&::&&::&&&&:&&&::&&:&&:&::&:&::&&:&&:&&:",
":&&&::&&&&:&&:&&&::&&:&&:&&::&&:&:&:&::&&:&:&:&::&:&:&&&:&&:&&:&",
"&&&:&:&:&&::&&&&::&:&:&:&&:&&:&&::&::&:&&&&:&&:&&&:&:&&&:&:&::&:",
"&:::&&&::&:&::&&&::&:&:&&:&::&:&&&&&&&&::::&:&&::&&&&::&&:&&&&&&",
"::&&:&&:&:::&:&::&&:&::&::&&&&:::&:&&&&:&:&&&:&:&&:&&&:&:&&:&:::",
"&&&::&&&&&:&&:&&:&&&&&&&&&:&&:&&:::&:&:&:&:&&:&&:&&::&&::&:&:&:&",
":&&:&&:&&:&&:&&:&&::&:&::&&:&&&:&&&:::&&&:&&:&&::&&:&::&:OO&::&&",
"&&:&::&&:&:&&::&::&&O:&::&:&&&:&:::&&&:&:&&::&:&&:&&:&&:&::&&O>e",
":&:&&:&:&&::&&&&&:&::&&&&&&&&::&&& >:&&::&&:&&:&&:&:&&&&:&::&&:3",
":&&:&&:&&:&&::&:&:&&&:::&::&:&&::&>::&&&&:&&:&&::&&:&::&:&&&:&&&",
"&&:&&&:&:&&:&&:&&:&&:&:&:&:&&:&&:&O&&&:&:&::&&:&&&:&:&:::&&&&&:&",
":&&::&&:&:&&:&&:&&::&&>&&&&:&::&&:e::&&:&&&&::&&&::&&&&&&:&:&&::",
":&&:&::&&:&::&&:::&O&:at&&&::&&:&>B&:&O:&::&&:&::&&:&::&&&:&::&O",
"&&:&&:&&:&&:&&:&&:>::O3&&&:&&&:&:> >&:>&:&&:&&:&&:&&:&&:&:&:&&&:"
};
