/* XPM */
static char *_4eb282078a343d6b933d298df3cf5a5PITc02qPFMT1737r[] = {
/* columns rows colors chars-per-pixel */
"64 64 218 2 ",
"   c None",
".  c #070708",
"X  c #000F0F",
"o  c #1F1213",
"O  c #111C11",
"+  c #153017",
"@  c #223A1E",
"#  c #144E26",
"$  c #194920",
"%  c #1E5926",
"&  c #155628",
"*  c #1F5428",
"=  c #135A2D",
"-  c #1A5D2D",
";  c #1B5E2D",
":  c #1B5F31",
">  c #205023",
",  c #23552B",
"<  c #29572B",
"1  c #2B562A",
"2  c #275828",
"3  c #2B5F30",
"4  c #2A5C34",
"5  c #0E6D2B",
"6  c #0D6E2C",
"7  c #1B6226",
"8  c #11662A",
"9  c #11692D",
"0  c #196C2C",
"q  c #0C722D",
"w  c #0A792F",
"e  c #097C2F",
"r  c #10712E",
"t  c #12722F",
"y  c #0D7831",
"u  c #1C7A31",
"i  c #276629",
"p  c #2A652C",
"a  c #216C2C",
"s  c #2B6A2B",
"d  c #2A6F2C",
"f  c #316D2F",
"g  c #20722C",
"h  c #29772B",
"j  c #2D712F",
"k  c #267F2F",
"l  c #2A7B2D",
"z  c #2D7F2E",
"x  c #31762E",
"c  c #2D7730",
"v  c #2D7830",
"b  c #2D7836",
"n  c #357734",
"m  c #3D7235",
"M  c #307B31",
"N  c #327E32",
"B  c #347F36",
"V  c #3C7E32",
"C  c #437A35",
"Z  c #4A7C3F",
"A  c #6E3E40",
"S  c #3B6148",
"D  c #3B7344",
"F  c #476A52",
"G  c #4D635E",
"H  c #51725D",
"J  c #62767E",
"K  c #A6545B",
"L  c #D76E74",
"P  c #068030",
"I  c #0F8231",
"U  c #138A32",
"Y  c #1F9534",
"T  c #2D842E",
"R  c #2D8A2F",
"E  c #2F8133",
"W  c #2F8731",
"Q  c #268C31",
"!  c #2E8C31",
"~  c #2F8F31",
"^  c #378332",
"/  c #308531",
"(  c #308633",
")  c #3A8132",
"_  c #328B32",
"`  c #318A35",
"'  c #328E34",
"]  c #338E35",
"[  c #388A36",
"{  c #378B38",
"}  c #3B8B3C",
"|  c #2E9334",
" . c #279C35",
".. c #309332",
"X. c #359133",
"o. c #319633",
"O. c #309034",
"+. c #359535",
"@. c #3B9536",
"#. c #319932",
"$. c #339835",
"%. c #369A35",
"&. c #339D34",
"*. c #349D36",
"=. c #379F37",
"-. c #369338",
";. c #379438",
":. c #3C933C",
">. c #359C38",
",. c #34A035",
"<. c #34A234",
"1. c #35A336",
"2. c #35A735",
"3. c #35A636",
"4. c #35A138",
"5. c #3CA03D",
"6. c #37A839",
"7. c #408836",
"8. c #448238",
"9. c #4A8839",
"0. c #4A8E39",
"q. c #538C3D",
"w. c #439238",
"e. c #4C9039",
"r. c #42983B",
"t. c #4F983C",
"y. c #4C9F3C",
"u. c #59953F",
"i. c #579D3E",
"p. c #53A43E",
"a. c #5AA43F",
"s. c #498640",
"d. c #418D44",
"f. c #4F804A",
"g. c #55834A",
"h. c #558748",
"j. c #589040",
"k. c #5C9043",
"l. c #5D9443",
"z. c #5A9744",
"x. c #5E9F40",
"c. c #529252",
"v. c #5F9257",
"b. c #5E9856",
"n. c #609548",
"m. c #619E4B",
"M. c #62984C",
"N. c #48AA46",
"B. c #5FA842",
"V. c #57B641",
"C. c #60A342",
"Z. c #60A045",
"A. c #62A446",
"S. c #63A842",
"D. c #62AE42",
"F. c #65AE43",
"G. c #66AC45",
"H. c #67A649",
"J. c #66A848",
"K. c #6AAE49",
"L. c #6AAF4A",
"P. c #67B443",
"I. c #61B445",
"U. c #68B346",
"Y. c #6AB547",
"T. c #62BD46",
"R. c #6AB845",
"E. c #6CB947",
"W. c #6CBC47",
"Q. c #6EB94B",
"!. c #6EBD48",
"~. c #73BD4F",
"^. c #72B255",
"/. c #6A9466",
"(. c #7E9F76",
"). c #78A46B",
"_. c #6FC047",
"`. c #6CC349",
"'. c #70C04A",
"]. c #71C34B",
"[. c #70C448",
"{. c #72C449",
"}. c #71C54A",
"|. c #73C54A",
" X c #74C54D",
".X c #79C753",
"XX c #81C55F",
"oX c #6B8587",
"OX c #7B969C",
"+X c #89AD81",
"@X c #89A4AB",
"#X c #93B1B7",
"$X c #93B4BE",
"%X c #ACBDA0",
"&X c #BBC4AB",
"*X c #C5C9B8",
"=X c #A0C3CE",
"-X c #A9CBD9",
";X c #B3D4E0",
":X c #B4DAE9",
">X c #B8E0EE",
",X c #BBE5F2",
"<X c #D4D3C5",
"1X c #DBD8CB",
"2X c #DBDACD",
"3X c #DCD9CD",
"4X c #DDD9CD",
"5X c #DCD8CE",
"6X c #DDDACF",
"7X c #DDDBCF",
"8X c #DEDACE",
"9X c #DEDACF",
"0X c #DEDBCF",
"qX c #DDDBD1",
"wX c #DFDBD0",
"eX c #E0DCD1",
"rX c #C0D4E0",
"tX c #E1F3F7",
/* pixels */
"                                                                                                                                ",
"                                                                                                                                ",
"                                                                                                                                ",
"                                                                                  n                                             ",
"                                                    B n                       f @.N.}                                           ",
"                                                  } 4.&.;.' f             { ( b d.N.=.B                                         ",
"                                                  >.| 2.,.&.4.s       % O.#.E 5.d.' 2.4.n                                       ",
"                                                ' 2.$.$.=.&.! 7 q e y 5 7 T 5.N.,.z ..2.;.                                      ",
"                                              } $.$.%.' k 0 5 w e q P t O.=.,.%.,.&.E ,.=.n                                     ",
"                                              [ o.l E j 5 w w e 5 q e 0 4.&.| | ,.2.R ! 2.B                                     ",
"                                          n ;.l 0 q 5 & y w q w 8 w e t ! 3.=.T &.,.#.R 2.x { =.-.                              ",
"                                        { 4.,.g q w 5 7 & y w 5 q w 8 5 T &.<...o.&.&.R | X.2.=.4.:.                            ",
"                                      :.#.o.<.M W T 0 3...0 y 5 w 8 ^ 7 h | =.| | 2.=.! ! &.<.o.,.2.}                           ",
"                                    ;.4.' ,.o.| 2.<./ =.,.k t t t a 2._ W 4.#.! &.2.%.! | &.o...=.2.;.                          ",
"                                    =...X.&.W +.,.<./ W #.=.a t g o.2...| 2.<.T &.,.' ' R 2.#.R ,.=.(                           ",
"                              =.5.` %.T o.| ' | ,.%./ ] _ 3.%.0 _ 6.2...| 2.&...w.p.V / &.2.#.T &.4.M ;.4.n                     ",
"                            9.,.6.%.| T <.| o.R $.$.W ! v 1.| | W 1.6.X.+.3.#.w.E.|.!.i.@.,.| +.,.,.z ,.6.c                     ",
"                            :.o.4.4.' T =.R #.R &.$.' &.^ ! ! &.l 2.6.O.+.3.@.U.}.}.|.}.a.' +.,.&.$.l ,.2.X.8 y -               ",
"                            4.] $.,.+.E ~ R #...%.#._ 6.>.h &.3.l =.,.R ,.@.F.}.].].]._.].0.o.#.&.4.l ,.2.,.0 P t               ",
"                            =._ ' 2.%.! &.o.&.W V %._ 6.4.W 3.3.h &.$.' $.B.}.[.}._.}.].|.a.=.2.3.,.h ,.2.#.8 e 9               ",
"              k.Q.L.k.  n.J.e.~ R 3.,.T #.%.,.0.J.r./ <.,...&.<.l | R =.r.!.[.[.}.Q. X].{.S...#.&.' z <.2.h & 0 -               ",
"              L.}.|.}.z.Y.[.R.t.z =.2._ T &.' A.XXU.V ' ,.S.I.y.j T _ ,.y.|.[. X^.L..X].`.a.#.<.$.l +.| ^ V z.S.G.n             ",
"              L.|.|.U.A.[.[.|.~.D.@.o.&._ ! 0.XX.XY.Y.t.i.`.}.].i.V =.&.y._.]..X^.XX X~.~.p.' T T $.^ q.U.}. X X].s.            ",
"              H.|.}.S.R.!.]._.P.}.U.^ <.<.E m..X[.R.~.].C.!.|._. XI.@.,.y.W.A. X^.XXXX~.].a.z =.$.^ B._.R.}.}.].].u.s.s.        ",
"              k.].}.B.Q.E.F.W.U.].}.i.&.6.^ m. X].E.W.[.A.W.|.}.{.].y.=.y.}.A.~.C.XXXXE.{.P.@.,.7.U.[.R.U.}.].]. Xu.r.{         ",
"                Q.].C.R.[.S.L.W.].[.a.#.N.7.i. XB.U.}.}.S.R.}.}.[.E.a.#.p.}.U.U.G.K.!.{.].|.y.) H.|.|.R.P.W.U.}..Xm.' n         ",
"                m.}.S.Y.}.Y.S.|._.W.U.@.6.M t.}.D.].}.}.R.A.W.!.!.R.F.] D.|.~.F.C.A.|.[.}. Xm.9.}.}.[._.G.J.E.}. Xu.E           ",
"        * ( W ^ C ~.U.S.}.].S.W.].W.~.r.&.i w.W.P.E.E. X_.A.E.E.Y.W.P.7.~.!.|.!.i.S.}.|.|. XF.S.}._.[._.m.G.~.F.].0.N           ",
"        v 2.2.1.X.i.].i.].].E.A.Q.W.~.w.R 7 @.Y.S.F.].!.|.F.F.F.E.|.U.0.W.B.Y.|.F.A.|.|.~.].G.U.!.E.}.~.q.F.S.W.E.V f           ",
"        * %.1.2.<.^ G.G.F.}.}.G.A.].R.t.h 7 X.S.a.!._.W.{.R.S.F.[. XG.7._._.F.E.F.P.|._.D.].S.Q.F.!.[.C.C.~.].[.i.x             ",
"          c 2.2.<.,.7.U.m._.].{.i.!.E.S.i 7 X.a.P.W.P._.{.R.A.D.}.].G.l S.[.].E.C.!.}.P.Y.W.S.].S.W.].u.L.B.D.G.m               ",
"          < $.2.2.2.%.0.S.A.P.U.F.x.G.R.a 7 +.i.F.A.].{.U.~.C.F.~.].R.z @.F.].].A.P.F.P.|.u.G.|.G.G.m.u.S.E.Q.C *               ",
"            v %.1.1.2.%.t.A.G.R.F.u.S.R.u 7 X.a.x.G.|.F.P.!.C.A._.].~.^ &.%.S._.S.!.].}.a.V R.}.A.u.Y.].}.~.Z                   ",
"              < v ,.2.1.@.i.S.S.!.].B.B.u 5 7 t.R.F.}.F.`.U.C.P.}.|.}.w.#.<.@.D.R.}.G.t.+.{ E.Y.G.]. X X!.l.                    ",
"                  v ,.2.6.$.i.G.x.C.J.x.u P 8 i C.A.R.P.~.S.D.P.}.Y.}.7.Q 2.<.y.].t.O.=.,.7.E.Y.|.[.].].l.                      ",
"                    p d W 2.%.w.a.S.x.A.w.w e h i.x.S.!.x.f.H F q.E.L.k u <.,.t.i.+.2.2.' i.Q.L.K.Y.Y.l.                        ",
"                          O.2.=.#.%.r.9.q.b w u r.U.A.C.F #X:X-XoXq.M : S D / 0.w.2.2.l 9.A.                                    ",
"                            s s s O.2.4.[ 9.u t ~ p.S.C @XtX,X,X:XG > OX;X=XF 8.%.,.l m j.                                      ",
"                                    c ` d f :.u T %.a.F rXtX,X,X,XOXG tX,X,X@X4 k u c z.                                        ",
"                                < s *         Z b 2.X.H :X,X:X@X=X$XOX;X@X:X-X4 w u v.s.          2 ,                           ",
"                                / ,.+.p #       p { %.H :X:X:XoX$X$XOX=XJ :X-X4 I d.M.        1 ~ >.+.,                         ",
"                              j 4.2.&.h &         3 ! D -X,X,X,X,XOXG :X:X,X@X: ( m.g.      = 7 $.2.2./                         ",
"                              ( 2.,.i $ -         2 a j @X,X:X,X:XH > OX:X=XH a d.M.        - $ 2 ' 2.+.                        ",
"                              +.1.E & = -           - 7 S #X:X;XoX: 0 4 F S h.b i.g.        , = & a ,.4.%                       ",
"                            < &.' i ,               < g j 3 F S < g g T z M i.b b.                3 v 2.d                       ",
"                            < ,.o.$.{                 p W x g h p c g W i > u.8.n.              n +.| 1.j                       ",
"                              | <.W 4.N     s ) ) s   < ^ V g k a j g 2 O > i.u.f , N ) d     s >.! o.=.%                       ",
"                              t 1.E +.2.p ) I.`.`.V./ 4 V i + > $ @ + X X j B.q.M N.`.`.T.e.< %.2.z ,.Q                         ",
"                              % Y | 0 =.#.V.`.`.`.T.2.j m h O . . . . . O ) a.8.2.V.`.`.`.T.%.4.M z  .9                         ",
"                                5  .E +.2...;.%.@.=. .b h.^ O . . . . . + _ i.h  .,.%.%.@.' ,.&.z $.u #                         ",
"                                # y Y ,.1.| 0 7 8 I P a F w.+ . o o o . > X.q.8 e I 5 8 0 ! 3.3. .I -                           ",
"                                  8 y U  . . .U P P P 0 g.7.1 . A L K O h X.0.q P P P I Y  .Y U I t                             ",
"                                    5 y w w e e e y t - f.8.8.@ A K A 2 ~ ] e.; q y y e y e e y y ,                             ",
"                                      # # # , #         c.h.[ V $ > h +.R X.u.        # * * # # #                               ",
"                                                        c.v.9.0.g R ....~ ] z.                                                  ",
"                                                      g.c.v.q.t.a ' R | ~ ] B.                                                  ",
"                                            qXqX4X4XeX+Xc.v.h.q.a ..R ! [ ' ).1XeX4XqX4X                                        ",
"                                    4X4X4X4X4X4X4X4X4X+Xc.b.).+X/.' /.+X%Xb.&X1X4X4X4X4X4X4X4X2XqX                              ",
"                                  qX4X4X4X4X4X4X4X4XeX%X(.b.%X*X<X(.*XeX<X+X<X4XeXeX4X4X4X4X4X4X4X4X                            ",
"                                      4XqX4X4X4X4X4X4XeX&X(.<XqX4X4X4X4X4X<X4X4XeXeX4X4X4X4X4XqX                                ",
"                                                      qXqX4X2X0X0X0X0X0X0X4X4X                                                  ",
"                                                                                                                                ",
"                                                                                                                                ",
"                                                                                                                                "
};
