/* XPM */
static char *result[] = {
/* columns rows colors chars-per-pixel */
"64 64 217 2 ",
"   c #040404",
".  c #0C0C0C",
"X  c #0F0F11",
"o  c #111212",
"O  c #161719",
"+  c #19191B",
"@  c #1E1A17",
"#  c #0E1012",
"$  c #2C1D18",
"%  c #121B23",
"&  c #1F2123",
"*  c #172B3B",
"=  c #242528",
"-  c #282828",
";  c #342C28",
":  c #313131",
">  c #3C3B3B",
",  c #342F0D",
"<  c #4C2C1A",
"1  c #6E2D13",
"2  c #6D3D1C",
"3  c #713F1C",
"4  c #74290C",
"5  c #5B2225",
"6  c #5B3824",
"7  c #453932",
"8  c #423F3C",
"9  c #473126",
"0  c #7D2124",
"q  c #653822",
"w  c #761F23",
"e  c #5D5308",
"r  c #73401C",
"t  c #7A441D",
"y  c #7C6F04",
"u  c #49423D",
"i  c #5D4339",
"p  c #714425",
"a  c #764F3D",
"s  c #694F32",
"d  c #283E51",
"f  c #0E3F67",
"g  c #1B364D",
"h  c #0B416C",
"j  c #184060",
"k  c #0B4574",
"l  c #0B497A",
"z  c #07477C",
"x  c #1B4C75",
"c  c #134D7B",
"v  c #154A74",
"b  c #1B517B",
"n  c #2B5569",
"m  c #3C5161",
"M  c #275578",
"N  c #2E5876",
"B  c #4D4A4A",
"V  c #424243",
"C  c #504F51",
"Z  c #5C595B",
"A  c #575455",
"S  c #4C5257",
"D  c #645349",
"F  c #6F5245",
"G  c #75625C",
"H  c #6F615F",
"J  c #445668",
"K  c #535D67",
"L  c #625E63",
"P  c #476379",
"I  c #586470",
"U  c #706A67",
"Y  c #67686C",
"T  c #4B6F54",
"R  c #892703",
"E  c #8B2904",
"W  c #872907",
"Q  c #93330F",
"!  c #9F252A",
"~  c #922F09",
"^  c #CF2D33",
"/  c #F12B35",
"(  c #E7373C",
")  c #80471F",
"_  c #9E4119",
"`  c #AC4615",
"'  c #B9501C",
"]  c #824920",
"[  c #834D28",
"{  c #964929",
"}  c #8A522C",
"|  c #955B36",
" . c #8A583A",
".. c #A44B2B",
"X. c #B0572E",
"o. c #BF622F",
"O. c #B36438",
"+. c #967809",
"@. c #C7591E",
"#. c #CB5D22",
"$. c #C45D25",
"%. c #D3433D",
"&. c #CE6225",
"*. c #C7652B",
"=. c #D16425",
"-. c #D56A28",
";. c #DB732E",
":. c #C56837",
">. c #E1792F",
",. c #E07730",
"<. c #E37B31",
"1. c #975D42",
"2. c #8A5C44",
"3. c #B25D4B",
"4. c #986345",
"5. c #846457",
"6. c #A66246",
"7. c #A37257",
"8. c #B7694C",
"9. c #8C776C",
"0. c #A07465",
"q. c #D24D4D",
"w. c #EE4746",
"e. c #CA6E55",
"r. c #DD6B6A",
"t. c #C47B62",
"y. c #7D9036",
"u. c #668246",
"i. c #99930E",
"p. c #B99614",
"a. c #AC9F22",
"s. c #928D28",
"d. c #D2AC0E",
"f. c #E8C210",
"g. c #8F886E",
"h. c #B4856E",
"j. c #D8844C",
"k. c #C39178",
"l. c #C89077",
"z. c #D28E73",
"x. c #E29E6F",
"c. c #E39A73",
"v. c #E3A36E",
"b. c #E6A57A",
"n. c #E5A175",
"m. c #DDA07A",
"M. c #366383",
"N. c #2B6289",
"B. c #486D88",
"V. c #6E8BA2",
"C. c #908682",
"Z. c #B3988B",
"A. c #B79E90",
"S. c #A29994",
"D. c #ADA29E",
"F. c #BDB09A",
"G. c #9EADB6",
"H. c #BBB1AD",
"J. c #DE8781",
"K. c #C69C86",
"L. c #D99D86",
"P. c #DD948F",
"I. c #E29E8B",
"U. c #D6A38B",
"Y. c #C6A594",
"T. c #D5AE9A",
"R. c #E9BE8C",
"E. c #E6AE9A",
"W. c #E8AB98",
"Q. c #E4A896",
"!. c #E7B19B",
"~. c #E9B69E",
"^. c #CCB2A3",
"/. c #CEB8AD",
"(. c #D6BDAF",
"). c #DBBAA9",
"_. c #CFBCB4",
"`. c #E1B5A0",
"'. c #E6BBA8",
"]. c #EBBBA3",
"[. c #EAC08E",
"{. c #EBC998",
"}. c #DFC1B2",
"|. c #DCC5B9",
" X c #D5C1B8",
".X c #EDC4AC",
"XX c #EEC6A8",
"oX c #F0CDAE",
"OX c #F3D6A8",
"+X c #F1D9AA",
"@X c #E6C5B5",
"#X c #E1C6B8",
"$X c #E5CBBC",
"%X c #ECCBBA",
"&X c #EEC9B5",
"*X c #F2CCB4",
"=X c #F6CFBC",
"-X c #F4D9B6",
";X c #F5D1BF",
":X c #F5DDB9",
">X c #F2D3B3",
",X c #F7E2BC",
"<X c #F8E5BE",
"1X c #F6EDB9",
"2X c #F9EABC",
"3X c #E8D1C5",
"4X c #F4D4C4",
"5X c #FDD6C3",
"6X c #FFD8C5",
"7X c #FCDAC8",
"8X c #F9E6C0",
"9X c #FAEBC3",
"0X c #FCF1C6",
"qX c #FDF5C9",
"wX c #FEF8CB",
"eX c #FFFBD1",
"rX c #CCD4DA",
/* pixels */
"o o . . @ . o @ . .   . . . . . . . . X . . . X . . . . X .   X X X X . . X . . . o o o . . . . . . o . . : 8 . . . . . . . . . ",
". o o .   . & o . . - ; . . X . . . .   . .   . . . . . . . wXwXwX. . . . . . . . . . X o . . . . . . . . . .     . . o . . > o ",
". + o o o . . . .   & & . o . . . X X . . o @ . . X . . O wXwXqXqXwXwX  . . . . .   .   . . . . . . . o . . o o o o . o . . . . ",
"X   o o o   . . . X .   . @ . o . . . . X p.X . o o o ; - B A wXwXwXwXwXo     +.d.. . . . . . . . . . . . . @ o .   . o . o . . ",
"X . .   X . . . o o X X . . . # o + : : s d.a.D u 7 - O o @ + = wXqXwXwXwX: +.d.f.f.o .   . . . . o . o . . . . . o o . . # . . ",
". . o . . . . .   . X X . . @ 7 G Z.Y.^.XX.X@X'.T..XT.U @ X X wXwXwXwXqXwXwXp.p.d.d.. o . . . . o .   o . o . .   . . o 8 . o   ",
"  . . o . o . . . . . . & D Z..X5X5X(.=X*X%X3X5X$X|.D.Z.Y.wXwX0XqX_.|. X/.p.wXwX. o o o . . o o . & .   & @ . . &   .   . . . o ",
"X X .   . . . . o   O . A.;X5X|.4X5X=X5X5X5X%X@X@X/.9.U %X|.$X$X).!.;X5X4X3XwXwXwXqX. o   . . . .   o . . . . . . . . . . o O . ",
". # . . . . o @ . . . . 4X5X;X}.'.4X6X6X5X%X@X@X@X(.$X4X5X6X6X6X7X^.'.5X5X7X XwX0XXX:X.   X o . + . . .   . . . @ o . . + . . . ",
"o . . . . o . o . @ . . |.5X5X;X4X5X5X%X%X(.@X(.(./.6X6X5X6X6X4X$X^.*X5X5X7X X9X.X:XwXwXX X . o & o . @ + . o . . . o   . . . . ",
". o . . . . .   . . o   . |.%X;X6X%X#X@X'.#X#X#X(.(.@X%X@X%X'.(.'.=X4X#X4X X<XXX,XwXwXwXwXX X . . . . @ o . . X . . + . . o o o ",
". . . . . . . . . . . .  X}.^.).5X(.@X(.$X6X5X6X6X6X4X4X=X*X=X4X6X5X4XD.<X8XXX,XwXwXwXwXwXwX:X. o . X X X o . . o   . . o   o . ",
". . . . . . o . . . . . $XT.k.U.5X@X@X%X=X5X5X5X6X5X5X5X6X6X5X5X5X5X|.'.!.].,XwXwXwXwXwXqX-XOXk.&X;X%X|.. X . . . o + . . . . o ",
".   . . . . . . . . . . o ^.|.|._.F.=X6X6X5X5X5X5X5X5X5X5X5X5X5X4X|.wX9X].!.:XqXwXwXwXqX>X*XY.'.5X5X5X5X5X:X5X=X&X/.o o .     . ",
". . . . o . o . . o o   : > wXwXwXwX9X X4X@X@X4X4X6X5X5X4X4X3X3X9XwXwXwX0XXX!.>XqXwXqX*Xh..X5X7X5X5X5X5X5X5X5X5X6X;X X. . o =   ",
". . . o . o . . o . . . . wXwXwXwXwXwX0X3X=X'.).).).^.^.wXqX'.8.%.( ( ( 5 5 ( ( w.3.k.U.`.5X5X5X5X5X5X5X5X5X5X5X5X5X5X4X X. . . ",
". . . . . o . . X   X . wXwXqXwXwXwXwXwXwX3X5X5X7X7X%XeX7X(.(.'.l.r.( / w 5 / / / ^ k.U.).=X5X5X5X5X5X5X5X5X5X5X5X5X5X5X3X. . . ",
". . . + o = o . . . . wXwXwXwXwXwXwXwXqX8Xe.J.Q.'.'.'.'.W.P.J.r.r.r.q./ ^ 5 ^ q.q.3.K.*X;X5X5X5X5X;X).;X5X5X5X5X5X5X5X6X3X# . . ",
". . . .   o . o O . wXwXwXwXwXwXwXwXwXe.w./ / / ( ( w.q.r.J.P.P.P.J.r.q.q.3.h.k.K.'.5X5X5X5X5X7X(.g.9.^.6X5X5X5X5X4X|.4XH.. . # ",
". . .   o . o . . wXwXwXwXwXwXwXwXqX6.w./ / ^ ! ! 3.E.%X3X3X#X4X5X=X$X=X@X).K.k.*X7X5X5X5X5X5X7XA.Z.&X).5X5X5X5X5X7X#XA.. . . . ",
". . . o . . . . X wXwXwXwXwXwXwXwX>X6.w.^ ! 5 w 5.3X4X(.4X5X5X(.@X=X=X'.;X7X^.T.7X6X6X5X5X5X#Xg.U @X5X5X5X5X5X5X5X6X|.k.K.o . . ",
". . . . o . . . wXwXwXwXwXwXwXwX>XQ..Xq.a 5 w @ Z (.(._.=X%X(.4X5X%X3X4X5X5XK.!.7X6X5X5X5X%X9.A g.%X5X5X5X5X5X5X5X5X^.k.~.3X X. ",
". . . . . .   wXwXqXwXwXwXwXwX:XE.XXqX0X0.3.$ o + : B 8 8 B S.'.(.&X5X5X%XP.h.T.5X5X5X5X5X;XA.Z.).6X5X5X5X5X5X5X6X|.K.U.}.|.|.. ",
". . . o . . o wXwXwXqXwXwXwX<X~.].0XwX;XP.Z : O O O O + + + f N.B.(.&X`.U.k.k.7.K.K.'.5X6X6X7X6X5X5X5X5X5X5X5X6X$XK.k.Y.. . .   ",
".   o . X X +X:XwXwXwXwXwXqX].!.<XqX>XL...E B = O + + + + % k f x Y '.'.4X5X&X'.'.'..X5X5X5X5X5X5X;X5X5X5X5X;X XK.k.Z . . . . . ",
". . . . . . 0X,X>X8XqXwXqX-XQ.].9XoXL...E E E V + + + + + + g N.N.J D.(.4X7X7X7X7X6X6X6X5X5X5X6X;X;X5X;X4X3X^.>X2XqX& X . o   . ",
". . . . . . wXwX0X:X>X9X<X!.].].!.L...R E E E E 8 + O + + + + = * * & : B U C.A.F.(.$X3X4X5X$X$X$X%X3X|.<X-X,X0XqXwX  . . . . o ",
"  o . . o   wXwXwXwX9X:X].W.,X-XL...R R R R R ~ ` V & O + + + O # O O + O O O % & : > B B A U S.,X>XQ.XX,X0XwXwXwXwX. X . . o   ",
". o . o o . wXwXwXwXqX9X!.XX,XW.6.E E E E R E ` #.&.8 = + + + + + O + + + + + + + O O O + O 8 t.~.9X!.].wXwXwXwXwXwX. . o . . . ",
". . . o o o wXwXqXwXqX-XW.>X].t.~ E E E R R ` =.&.&.B : + + + + + + + + + + + + O + + + + @ C Q z.oXoX!.<XwXwXwXwXwXo o . . . o ",
". o . o . . qXwXwXwXqXXX!.oXL.{ R E E E ~ _ @.=.&.A = O + + + + + + + O + O O + + + + + O : S E X.W.XXQ.>XwXwXwXwXwX$   . o .   ",
"o . . o . . 1XwXwXwXqX].W.!.t.E E E E E ` @.@.=.&.L : O + + + + + O + + + + + + O + + + & C W W Q z.~.W.XXwXwXwX0X0X& . . . . . ",
". . . . . . :X:X:X-X-X!.Q.L...R R W E _ #.@.#.&.&.C : + + O + + + + % O + + + + + + + O > Z Q 4 E O.W.W.~.:X:X:X:X:X  o o o . . ",
". . . . . . wXwXqX0X,XW.W.L.Q R W 1 6 X.&.@.#.=.S : O O + + + + + + + + O + O + + + O : A G  .W R ..I.W.].8X0XqXqXwX. . o . . . ",
". . . . eXwXwXwXwXwXqX,X].t.W W < ; m P O.#.@.Z : + + + + + + O O + + + + O + + + O = Z M.P M.i R Q P.].8XwXwXwXwXwXwX. . . . . ",
". . . . wXwXwXwXwXwXwXqX-X8.R 4 - 1 K M.1.@.Z : O + + + O + + + + + O + + + + + O & B G N.5.1.J W E z.<XwXwXwXwXwXwXwXeX. . . . ",
". . . . eXqXwXwXwXwXwXwXOXX.R 4 < ` 5.H 2.L 8 O + + + O O + + O + + + + + + + O & C 5.5.H 4.X.L Q E 8.2XwXwXwXwXwXwXqX. . . . . ",
"  . . . 1X1X1X1X1X1X1X1X{.X.R 4 9 F Z V ; d & O + + + + + + + + + + O + + O O & C 2.4.P H O.L G { E 8.OX1X1X1X1X1X1X1X. . . . . ",
". . . . . . {.R.R.R.R.m.z.{ < ; q | V O O O + + O + + + O + + O O + + O + + = C 2.6.L M.Y | 1.G J 6 8.z.b.[.[.[.[.{.. . o . . . ",
". . . . . X 9X2X2X2X1X].I.5.- 1 x T i.e # O O + + + + O + + + O + + + + + = V Z :.1.1.4.:.=.$.&. .: 0.Q.+X2X2X2X9X9X. . . . . . ",
". . X . X . wXwXwXwXwX;XW.0.k l N.f T a.i.e , + O o O o O o O O O O o + + O = B &.$.#.-.#.6.L 2.$.7 Z.!.9XwXwXwXwX. . . . . . . ",
". . X X . . wXwXwXwXwX9X~.b N.l z z z l T y.i.i.i.y y e u A U C.A $ , @ X # &.&.#.#.#.&.O.P 5.O.X.F K.].qXwXwXwXwX. . . . . o . ",
". . . X . . . wXwXwXwXqX].b k l z N.z z N.f N.f T u.y.g.G.rXrXrXY.a.s.#.#.&.#.#.#.#.#.&.6.M.X.=.' A L.oXqXwXwXwXwX. . . . . . o ",
". . o . . . . wXwXwXqXwXx c l l z f z f f l l z z z l l c N.k c n N &.&.o.1...O.:.#.#.-.*.I M.H Z Z U.-XwXwXwXwXwX. . . . . . . ",
". . . X   . . wXwXwXwXwXx c l l z z z z z N.f z l l l l l l l l N.k #.*.J M M x m ..#.#.=.O.G P S 5.Q.0XwXwXwXwXqX. . . . . . . ",
". . . . . . . wXwXwXwXwXb l l l z f N.z z z f z l l l l k z k l z c v 1.N K 1.Z M.1.=.=.&.=.=.$.' 3.~.0XwXwXwXwXwX. . . . . . . ",
". . . . . . o wXqXwXwXx c l l l z z z z N.z f z k h k h k k k l k l N.f x x Y B.I *.&.=.X.1.5.6.' 8.oXwXwXwXwXwXwX. . . . . .   ",
". o . . . . . wX0X0XqXc l l z z z z z f z z f f k k l l l l l l k l f N.l l N.z c v &.O.I M.P N.F z.>XwXqX0X0X0X. .   . . . . . ",
". . X . . . . . ,X:Xx l l l l l l l l l l l k h k l l l l l l l l l l l l l l l l l l b N.H O.Z m l.*X-X,X:X-X-X.   . . .   . . ",
"X . . o . . . . wXqXb l l l l l l l l l l l l k h l k l l k l l l l l l l l l l l l l l c b b D A U.9XqX0XwXwXwX. . . . . . . . ",
". . . . . .   . wXwXx l l h l l l l l l l l l l k B.V.B.M k h k l l l l l l l l l l l l l c x D X.Q.0XwXwXwXwXwX. . . . . . . . ",
".   . . X . . . wXwXc l l h k l l l l l l l l l k M G.G.B.h h k k l l l l l l l l l l l c b I { :.!.qXwX0XwXwX. . . . . . . . . ",
". . . . . . . . wXwXb l l l l l l l l l l l l k l l k h l l l l l l l l l l l l l l l l l b N m 0.XXwXwXwXwXwX. . . . . . . . . ",
". . . . . . . . X wXb l l l l l l l l l l l l l l l k k h l l l l l l l l l l l l l l l b u 4.| | } } } | 7.qX. . . . . . .   . ",
". . . . . .   . . wXwXl l l l l l l l l l l l l l l l l h h k k l l l l l l l l k h k b n q ) ) t ] ] ] ) | 7.. . . . . . . o . ",
". . . . . . . . . wXwXv l l l l l l l l l l l l l l l l k h h k h h k h h k h h j h d u r ) ) ) ] ] ] ] } 7.. . . . . . . . . . ",
". . . . . . o . . . x c k k l l l l l l l l l z k k k h h k j 7 7 > > > 7 7 7 7 2 2 3 ) ) ) t t 3 2 2  .oX>X. . .     . . . . . ",
". . . . . 6. .|  .p D Z A J x h h k h k k k k k k l k l k j 7 r t t t t t r r r 3 3 3 3 p 1 @.X.L.oXOX+X>X+X. . . o . . .   o + ",
". . 7.| } ] ] ] ) [ ) ] ) } a A J n x M h h h f j j d > i 2 r < >.<.<.<.<.<.<.<.>.>.;.;.-.$.@.' e.j.x.v.v.v.j.. . . . .   . . o ",
". 4.} ) t ) ] ] ) ) ] ] ) ) p ) t ] a a s i 2 2 6 r t t r r <.<.>.<.<.<.<.<.<.<.>.>.;.;.-.=.' ` ' ' *.;.-.-.-.j.. . . . . . . . ",
".  .} t ) ) ) ] ] ] ) ) ) ) } ) ) ) ) ) ) ) t t t t r r <.<.<.;.<.<.<.<.<.<.<.<.>.>.,.;.=.#.o.X.e.e.x.x.n.x.v.n.. . . . . . . . ",
". . 7.[ t ) ] ] ] ) ) ) ) ) ) ) ) ) ) ) ) t t r r v.c.m.c.b.b.b.b.b.b.c.b.b.b.c.c.c.c.z.z.z.z.z.z.Q.OXOX+X+XOXOX. . . . . . . . ",
"o   . o r r r t ) t t t t ) ) ) t t r 3 p XX:X:X,X,X<X<X9X9X0X0X9X0X9X9X<X<X<X:X,X-X].W.W.W.Q.W.].8XwXwXeXwXwXwX  . . . . . .   ",
". . o   . . . . . . . . . . o . . . X X .   O .   . . . . . . . X .   . . # . . . . . . . . . . . . . . . . . . . . . . . . . . "
};
