/* XPM */
static char *a51aac53c0be4cbace8004815358babfUU61NAJaxgEIk2tn[] = {
/* columns rows colors chars-per-pixel */
"64 64 115 2 ",
"   c black",
".  c #98989B",
"X  c #8D8D8D",
"o  c #060606",
"O  c #304D99",
"+  c gray19",
"@  c #2F2E4A",
"#  c #1E1D3C",
"$  c #1D1C3B",
"%  c #151515",
"&  c #4B4B4B",
"*  c #CE0100",
"=  c #202020",
"-  c #464646",
";  c #424344",
":  c #D20100",
">  c #9E5C3D",
",  c #FFCD97",
"<  c #FFD09A",
"1  c #1F1E3D",
"2  c #131414",
"3  c #2F4F9D",
"4  c gray10",
"5  c gray17",
"6  c #22213D",
"7  c gray35",
"8  c white",
"9  c #15244B",
"0  c #0B0D1E",
"q  c #9C9C9D",
"w  c #4E2B1D",
"e  c #0A0B0B",
"r  c #310000",
"t  c #620000",
"y  c #D50100",
"u  c gray50",
"i  c #4C2B1C",
"p  c #C49D73",
"a  c #3B2F23",
"s  c #FFD39D",
"d  c #030202",
"f  c gray31",
"g  c #660000",
"h  c #8D8D93",
"j  c #373737",
"k  c #2C4A98",
"l  c #9E0100",
"z  c #2C2B47",
"x  c #3B3A53",
"c  c #929293",
"v  c #848589",
"b  c #7D664B",
"n  c #EA8483",
"m  c #393851",
"M  c #181818",
"N  c #80664B",
"B  c #2D2C48",
"V  c #423425",
"C  c #3E4041",
"Z  c #9B0100",
"A  c #7C8181",
"S  c #7F284D",
"D  c #690100",
"F  c #84674B",
"G  c #99A8CD",
"H  c #C09A71",
"J  c #DD3F3E",
"K  c #25140C",
"L  c #7C6348",
"P  c #F7C6C5",
"I  c #A3A3A5",
"U  c #676767",
"Y  c #C0A88D",
"T  c #80274C",
"R  c #647BB4",
"E  c #7B244B",
"W  c #A91324",
"Q  c #7F274D",
"!  c #696A6B",
"~  c #AB454A",
"^  c #3C1024",
"/  c #FFE8CE",
"(  c #82684C",
")  c #15152D",
"_  c #573A73",
"`  c #95A8D0",
"'  c #223871",
"]  c #243A73",
"[  c #886B4D",
"{  c gray59",
"}  c #9AADD2",
"|  c #84684B",
" . c #C1C4C4",
".. c #703E3E",
"X. c #E8654A",
"o. c #1E1D3B",
"O. c #495163",
"+. c #81274B",
"@. c #543974",
"#. c #607CB8",
"$. c #85694E",
"%. c #3A0A0A",
"&. c #81284E",
"*. c #A30000",
"=. c #E97668",
"-. c #48254C",
";. c #523A75",
":. c #B98380",
">. c #82284F",
",. c #84284F",
"<. c #F3B5A8",
"1. c #6B0100",
"2. c #22009B",
"3. c #00988D",
"4. c #988D06",
/* pixels */
"# # # # # # # # # # # # # # # # # # # # # # # # # # # # # # # # # # # # # # # # # # # # # # # # # # # # # # # # # # # # # # # # ",
"# # # # # # # # # # # # # # # # # # # # # # # # # $ $ $ $ $ $ $ $ $ $ $ $ $ # # # # # # # # # # # # # # # # # # # # # # # # # # ",
"# # # # # # # # # # # # # # # # # # # # # $ $ $ 1 B @ @ @ @ @ @ @ @ @ @ @ B 1 $ $ $ # # # # # # # # # # # # # # # # # # # # # # ",
"# # # # # # # # # # # # # # # # # # $ $ 1 B @ B x . q . . . . I . . . . q . x B @ B 1 $ $ # # # # # # # # # # # # # # # # # # # ",
"# # # # # # # # # # # # # # # o.$ 1 B @ m h . . q I 7 & & & 7 q 7 & & & 7 I q . . h m @ B 1 $ # # # # # # # # # # # # # # # # # ",
"# # # # # # # # # # # # # # $ 1 z x h q q 7 & & 7 { 4 o o o 4 X 4 o o o 4 { 7 & & 7 q q h x z 1 $ # # # # # # # # # # # # # # # ",
"# # # # # # # # # # # # $ 1 z m h c 7 7 q - e o 4 X 2       2 X 2       % X 4 o e - q 7 7 c h m z 1 $ # # # # # # # # # # # # # ",
"# # # # # # # # # # # 1 z x h q 7 & j = X 4     2 X %       % X %       % X 2     4 X = j & 7 q h x z 1 # # # # # # # # # # # # ",
"# # # # # # # # # $ # m h c U q - e o % X %     % X %       e - e       o ! %     % X % o e - q U c h m # $ # # # # # # # # # # ",
"# # # # # # # # 1 z x v 7 & & c 4     % X %     % X %     r D t g g g g D w e     % X %     4 c & & 7 v x z 1 # # # # # # # # # ",
"# # # # # # # # m h q 7 j e 4 X 2     % X %     % X %   r l y : : : : : y l r     % X %     % X 4 e j 7 q h m # # # # # # # # # ",
"# # # # # # # m v U q - e   2 X %     % X %     % X 2 r l : * * * * * * * : l r   % X %     % X 2   e - q U v m # # # # # # # # ",
"# # # # # # m v 7 f c 4     % X %     % X %     e ; %.l : * * * * * * * * * : l r 2 X %     % X %     4 c f 7 v m # # # # # # # ",
"# # # # 1 m v 7 j = X %     % X %     % X %     r t Z : * * * * * * * * * J n J l %.! %     % X %     2 X = j 7 v m 1 # # # # # ",
"# # # $ z h 7 j e % X %     % X %     % X %   r l y * * * * * * * * * J n P 8 P J g ; M     % X %     % X % e j 7 h z $ # # # # ",
"# # # 1 x c & e   % X %     % X %     % ! o r l : * * * * * * : J n n P 8 8 8 8 P ..; M     % X %     % X %   e & c x # # # # # ",
"# # $ B h 7 j o   % X %     % X %     e w g l : * * * * * : Z t ..v A A A A A A A C = e     % X %     % X %   o j 7 v m 1 # # # ",
"# # $ @ . & e     % X %     % X %     r l y * * * * * * : Z t t t t t t t t t t t g g 1.r   % X %     % X %     e j 7 h B $ # # ",
"# # $ @ . & o     % X %     % X %     D y * * * * * : y Z t Z : : * : : : : : : : : y *.r   % X %     % X %       e & . @ $ # # ",
"# # $ @ . & o     % X %     % X %     D y : : : y Z g t t Z J n n n =.X.X.=.n n n ~ t r     % X %     % X %       o & . @ $ # # ",
"# # $ @ . & o     % X %     % X %     r g t t g D r   a > X.<.8  .A Y < < Y A  .8 X C e     % X %     % X %       o & . @ $ # # ",
"# # $ @ . & o     2 X 2     2 X 2       a b b a     a p s < / 8 u   L < < L   u 8 { X 2     2 X 2     2 X 2       o & . @ $ # # ",
"# # $ @ q 7 4 2 2 5 c 5 2 2 5 c 5 2 % o ( s s (   a p < , , / 8 u   b < < b   u 8 v U 5 2 2 5 c 5 2 2 5 c 5 2 % 2 4 7 q @ $ # # ",
"# # $ @ I q X X X X q X X X X q X X c ; L < < N   $.s , , , s / Y L H , , H L Y / Y 7 ! X X X q X X X X q X X X X X q I @ $ # # ",
"# # $ @ . 7 4 2 % % 2 % % % % 2 % % % o ( s < b   a H < < < , , , < , , , , < , , < H V % % % 2 % % % % 2 % % % 2 4 7 . @ $ # # ",
"# # $ @ . & o                           a p < p a a H p N N p < , , , , , , , , , , s [                           o & . @ $ # # ",
"# # $ @ . & o                             N s < H H s L     V p s , , , , , , , , s p V                           o & . @ $ # # ",
"# # $ @ . & o                             a p , , , , p V     V | p s < < < < s p ( a   d                         o & . @ $ # # ",
"# # $ @ . & o                               N s , , , s N         V $.F F F F $.V       d                         o & . @ $ # # ",
"# # $ @ . & o                               a p , , , , p a                                                       o & . @ $ # # ",
"# # $ @ . & o                                 N s , , , < p N V                                                   o & . @ $ # # ",
"# # $ @ . & o                                 a p < , , , , s p N F | | | | | [ V                                 o & . @ $ # # ",
"# # $ @ . & o                                   a p < , , , , , < < < < < < s p V                                 o & . @ $ # # ",
"# # $ @ . & o                                     a p s < < < < < < < < < s p a                                   o & . @ $ # # ",
"# # $ @ . & o                                       a b b N b b b b b b b N a                                     o & . @ $ # # ",
"# # $ @ . & o                                     r g t ^ 9 ^ t t t t t ^ 9 ^ r                                   o & . @ $ # # ",
"# # $ @ . & o                                   r l y y >.3 &.y : : : y &.3 ,.*.r                                 o & . @ $ # # ",
"# # $ @ . & o                                 r l : * : S 3 S : * * * : S 3 Q y D                                 o & . @ $ # # ",
"# # $ @ . & o                               r l : * * : S 3 Q : * * * : S 3 Q y g                                 o & . @ $ # # ",
"# # $ @ . & o                               g y * * * : +.3 T y : : : y T 3 Q y g                                 o & . @ $ # # ",
"# # $ @ . & o                             r Z * * * : W _ 3 _ +.S S S T _ 3 T y l r                               o & . @ $ # # ",
"# # $ @ . & o                             D y * * * W ;.k k O 3 3 3 3 3 O 3 @.W y D                               o & . @ $ # # ",
"# # $ @ . & o                             g : * * : E #.G G R k O O O O O k #.~ : g                               o & . @ $ # # ",
"# # $ @ . & o                             g : * * : E ` 8 8 G k O O O O O k } n : D                               o & . @ $ # # ",
"# # $ @ . & o                           C ~ * * * : E ` 8 8 G k O O O O O k } n Z r                               o & . @ $ # # ",
"# # $ @ . & o                           v P J * * : E ` 8 8 G k O O O O O k } :...A C                             o & . @ $ # # ",
"# # $ @ . & o                           u 8 n * : W @.R G G R k O O O O O k R O.u 8 u                             o & . @ $ # # ",
"# # $ @ . & o                       d   u 8 P n ~ -.3 k k k k O O O O O O O O 9 u 8 u   d d                       o & . @ $ # # ",
"# # $ @ . & o                 d d o M e u 8 8 8 u 9 3 O O O O O O O O O O O 3 9 u 8 u o 4 M o d d                 o & . @ $ # # ",
"# # $ @ . & o           d d o M 4 4 = e u 8 8 8 u 9 3 O O O O O O O O O O O ] 0 u 8 u e = = 4 4 M o d d           o & . @ $ # # ",
"# # $ @ . & o     d d o M 4 4 = = = = = -  .8 8 u 9 3 O O O O O O O O O O O ] 0 u 8 u 2 5 = = = = 4 4 M o d d     o & . @ $ # # ",
"# # $ @ . & e d o M 4 4 = = = = 5 5 5 + = - u u O.' O O O O O O O O O O O O 3 9 C v & = + 5 5 5 = = = = 4 4 M o d e & . @ $ # # ",
"# # $ @ . f = 4 4 = = = = 5 5 5 + + + + + = % o 9 3 O O O O O O O O O O O O ] $ M 2 = + + + + + 5 5 = = = = = 4 4 = f . @ $ # # ",
"# # $ @ . f = = = = 5 5 5 + + + + + + + + j ; = 9 3 O O O O O O O ' ' O O 3 9 = - ; j + + + + + + + + 5 5 5 = = = = f . @ $ # # ",
"# # $ @ . f = 5 5 5 + + + + + + + + + + C ; - = 9 3 O O O O O O 3 9 9 3 O 3 9 = - - ; ; + + + + + + + + + + + 5 5 = f . @ $ # # ",
"# # $ @ . f + + + + + + + + + + + + ; ; - - - = 9 3 3 3 3 3 3 3 3 9 9 3 3 3 9 = & - - - ; ; + + + + 5 + + + + + + + f . @ $ # # ",
"# # $ @ . f + + + + + + + + ; ; ; ; - - - - j e 0 9 9 9 9 9 9 9 9 0 0 9 9 9 0 e = = = j - - ; ; ; ; + + + + + + + + f . @ $ # # ",
"# # $ @ . f + + + + ; ; ; ; - - - - - - - - = K w i i i i i i i w w K K w i w w i i i a j - - - - - ; ; ; ; + + + + f . @ $ # # ",
"# # $ @ . f + j ; ; - - - - - - - - - - - - = w > > > > > > > > > > w i > > > > > > > w = - - - - - - - - - ; ; j + f . @ $ # # ",
"# # $ B h f C C ; ; ; ; ; ; ; ; ; ; ; ; ; ; = i > > > > > > > > > > i i > > > > > > > i = ; ; ; ; ; ; ; ; ; ; ; C C f h B $ # # ",
"# # # 1 z 6 6 6 6 6 6 6 6 6 6 6 6 6 6 6 6 6 0 w > > > > > > > > > > i i > > > > > > > w 0 6 6 6 6 6 6 6 6 6 6 6 6 6 6 z 1 # # # ",
"# # # # $ # # # # # # # # # # # # # # # # 1 0 K w w w w w w w w w w K K w w w w w w w = ) # # # # # # # # # # # # # # $ # # # # ",
"# # # # # # # # # # # # # # # # # # # # # # ) 0 0 0 0 0 0 0 0 0 0 0 0 0 0 0 0 0 0 0 0 ) 1 # # # # # # # # # # # # # # # # # # # ",
"# # # # # # # # # # # # # # # # # # # # # # 1 1 1 1 1 1 1 1 1 1 1 1 1 1 1 1 1 1 1 1 1 # # # o.# # # # # # # # # # # # # # # # # "
};
