/* XPM */
static char *aaed5292ceca495e8bf369196a7ad7d9hwkZxFZCuQwxSpHp[] = {
/* columns rows colors chars-per-pixel */
"64 64 198 2 ",
"   c None",
".  c #0C0C0F",
"X  c #0F0F11",
"o  c #0E1012",
"O  c #131416",
"+  c #1E1A17",
"@  c #161719",
"#  c #18191B",
"$  c #1C1A1A",
"%  c gray11",
"&  c #2C1D18",
"*  c #342F0D",
"=  c #121B23",
"-  c #1F2123",
";  c #172B3B",
":  c #242528",
">  c #272628",
",  c #2C2B2D",
"<  c #332E2E",
"1  c #303031",
"2  c #3D3B3C",
"3  c #5A3014",
"4  c #683A1B",
"5  c #6E3D1B",
"6  c #6D3E1D",
"7  c #713F1C",
"8  c #761F23",
"9  c #5B2225",
"0  c #5F3A21",
"q  c #533D2F",
"w  c #453932",
"e  c #423F3C",
"r  c #7D2124",
"t  c #5D5308",
"y  c #73401C",
"u  c #78431D",
"i  c #7B441D",
"p  c #7C6F04",
"a  c #45403F",
"s  c #4C433C",
"d  c #714425",
"f  c #725E2B",
"g  c #604331",
"h  c #684C3B",
"j  c #764F3D",
"k  c #1B364D",
"l  c #283E51",
"z  c #0E3F67",
"x  c #0B416C",
"c  c #184060",
"v  c #0B4370",
"b  c #0B4573",
"n  c #0A4676",
"m  c #07477C",
"M  c #0A4878",
"N  c #0B497A",
"B  c #0C4A7B",
"V  c #154A74",
"C  c #1C4C71",
"Z  c #1D4C73",
"A  c #194D77",
"S  c #124D7B",
"D  c #164D78",
"F  c #174E79",
"G  c #124D7C",
"H  c #19507B",
"J  c #1D5078",
"K  c #1A517D",
"L  c #2A5369",
"P  c #2F5D6B",
"I  c #28577C",
"U  c #434244",
"Y  c #4E4A48",
"T  c #4B4A4C",
"R  c #504F51",
"E  c #525153",
"W  c #545254",
"Q  c #555355",
"!  c #5A5555",
"~  c #5A595A",
"^  c #5E5859",
"/  c #5D5C5E",
"(  c #615147",
")  c #4C6955",
"_  c #4B7153",
"`  c #425466",
"'  c #706A67",
"]  c #636F7D",
"[  c #9F252A",
"{  c #D62730",
"}  c #CA3135",
"|  c #F12B35",
" . c #E8363C",
".. c #E33E3F",
"X. c #80471F",
"o. c #967809",
"O. c #824920",
"+. c #834D28",
"@. c #8A522C",
"#. c #8A593A",
"$. c #945B35",
"%. c #945C36",
"&. c #D3433D",
"*. c #B75D55",
"=. c #986342",
"-. c #82675F",
";. c #AA604B",
":. c #A37154",
">. c #A97251",
",. c #A0725B",
"<. c #87776E",
"1. c #D74547",
"2. c #C25851",
"3. c #D65152",
"4. c #EE4746",
"5. c #D1655B",
"6. c #DD6B6A",
"7. c #7D9036",
"8. c #668246",
"9. c #99930E",
"0. c #B99614",
"q. c #928D28",
"w. c #AC9F22",
"e. c #D4AC0F",
"r. c #DAB000",
"t. c #CBA915",
"y. c #EBC105",
"u. c #E5C21A",
"i. c #8F886E",
"p. c #B5846D",
"a. c #B38771",
"s. c #C18D72",
"d. c #C29076",
"f. c #C39178",
"g. c #476C89",
"h. c #6E8BA2",
"j. c #908682",
"k. c #B1998D",
"l. c #A29994",
"z. c #B79E90",
"x. c #ABA39E",
"c. c #AEA29E",
"v. c #BBA599",
"b. c #BEB59B",
"n. c #9EADB6",
"m. c #BBB1AD",
"M. c #DE8781",
"N. c #C49B85",
"B. c #C89E87",
"V. c #DD948F",
"C. c #D1A088",
"Z. c #D3A58E",
"A. c #C0A496",
"S. c #CCA592",
"D. c #D5AE9A",
"F. c #E5A79D",
"G. c #CDB0A1",
"H. c #CAB5A7",
"J. c #CEB8AD",
"K. c #D6BDAF",
"L. c #DABAA9",
"P. c #DDB9A8",
"I. c #CFBCB4",
"U. c #E1B5A0",
"Y. c #E6BBA8",
"T. c #D5C0B7",
"R. c #DFC1B2",
"E. c #D5C2B9",
"W. c #DBC4B8",
"Q. c #DDC5B8",
"!. c #DDC5B9",
"~. c #DBC6BC",
"^. c #ECC3AE",
"/. c #E6C5B5",
"(. c #EEC9B5",
"). c #E1C6B8",
"_. c #E0C6B9",
"`. c #E3CABD",
"'. c #E6CBBC",
"]. c #E9C9B8",
"[. c #EECCBA",
"{. c #EFCEBD",
"}. c #F3CAB6",
"|. c #F6CFBC",
" X c #F5D1BF",
".X c #C7CFD6",
"XX c #E8D0C3",
"oX c #E7D3C8",
"OX c #F1D3C4",
"+X c #F7D5C4",
"@X c #FAD3C1",
"#X c #FCD5C2",
"$X c #FDD6C3",
"%X c #FED7C4",
"&X c #FFD8C5",
"*X c #FBD9C8",
"=X c #FFDBC8",
"-X c #D7DDE2",
/* pixels */
"                                                                                                                                ",
"                                                                                                                                ",
"                                                                                                                                ",
"                                          0.    O X O , , T Q                 o.t.                                              ",
"                              o O # < < f e.w.( s w : @ O # % :             o.e.y.u.                                            ",
"                          . + w -.k.A.G.Y.^.^.R.D.^.D.-.$ X X               0.0.r.t.                                            ",
"                      X - ( k.^.$X#XK. X[.].{.$X'.).c.k.S.        I.!.T.H.0.                                                    ",
"                        z.|.%XR. X$X X$X%X@X]./.R.J.<.' ].!.'.`.P.U.|.%X+XXX                                                    ",
"                        OX%X|.R.R. X%X%X%X[.]././.K.'. X$X%X%X%X*XG.Y.&X$X*XE.                                                  ",
"                        ~.&X$X X X$X@X{.].R.R.R.K.J.*X%X%X%X%X+X'.G.}.$X$X*XE.                                                  ",
"                          !.{. X$X[.).R.R.).).).R.K.'.'.].].R.L.Y.|.OX).OXE.                                                    ",
"                        T.R.G.L.@XR./.R./.$X$X%X%X%X@X X|.}.|.@X%X%XOXx.                                                        ",
"                        `.D.f.C.@X]./.[. X$X$X$X$X$X$X$X%X%X$X$X$X%X~.                        s.(. X[.!.                        ",
"                          H.Q.!.T.v.[.%X$X$X$X$X$X$X$X$X$X$X$X%XOX!.                        S.Y.$X$X$X$X@X@X@X|.[.H.            ",
"                                      E.+XR.]. X+X$X$X$X+XOXXX!.                        a.^.%X%X$X$X$X$X$X$X$X$X&X XE.          ",
"                                        XX|.Y.L.L.L.G.H.        &... . .9 9  . .4.2.d.Z.U.@X$X$X$X$X$X$X$X$X$X$X$X$X%XOXI.      ",
"                                          `.*X&X$X$X[.    !.`.P.f.6. .| r 9 | | | } f.Z.U.|.$X$X$X$X$X%X$X$X$X$X$X$X$X%XoX      ",
"                                          5.M.F.Y.Y.^.U.F.V.M.6.6.6.1.| } 9 } 1.3.*.B.}.$X$X$X$X#X XL.{.%X$X$X$X$X$X@X&XoX      ",
"                                      5.4.| | |  . .1.3.6.M.V.V.V.M.6.3.1.*.p.f.f.Y.$X$X$X$X$X*XL.i.<.G.%X$X$X$X$X+XW.OXm.      ",
"                                    ;.4.| | { [ [ *.F./.'.'.'.{.@X|.'.{./.L.N.f.}.=X$X$X$X$X@X*XA.k.[.L.$X$X$X$X$X*X).z.        ",
"                                    ;.4.{ r 9 8 -.oXOXR. X$X|./.].|.|./. X=XG.D.=X$X$X$X$X$X).i.' R.%X%X$X$X$X$X$X&XW.f.B.      ",
"                                      2.j 9 r & ! W.R.J.|.].R.@X$X[.).OX$X$XN.U.=X$X$X$X$X[.<.! i.].$X$X$X$X$X$X$X*XG.f.U.OXT.  ",
"                                        ,.*.& @ # 1 Y 2 s Y k.].K.(.#X$X}.V.p.D.$X$X$X$X$X XA.k.L.&X$X$X$X$X$X$X&X).N.C.R.!.~.  ",
"                                          ^ 1 @ # @ @ @ @ = z I g.K.}.U.Z.f.f.,.N.B.Y.$X$X$X&X&X&X$X$X$X$X$X$X&X'.N.f.S.        ",
"                                            T : @ # # # # = b N Z ] Y.Y.+X$X}.Y.Y.Y.^.$X$X$X$X$X$X$X$X$X$X%X+XK.B.s.            ",
"                                              U % # # # # # k K J ` c.K.OX*X=X=X*X&X&X$X$X$X$X$X@X[.$X$X+XXXH.                  ",
"                                                e % @ # # # # : ; ; - < Y ' j.z.b.K.'.OX+X+X'.'.).).XX!.                        ",
"                                                  U - @ # # # # $ # # # @ @ @ = - 1 2 Y Y ! ' l.                                ",
"                                                    a : # # # # # # # # # # # # # @ @ O @ O 2                                   ",
"                                                    T 1 % # # # # # # # # # # # # # # # # % R                                   ",
"                                                  Q : # # # # # # # # # # # # # # # # # @ 1 Q                                   ",
"                                                  / 1 # # # # # # # # # # # # # # # # # - R                                     ",
"                                                  E 1 # # # # # # # # # # # # # # # # @ 2 ^                                     ",
"                                                E 1 @ # # # # # # # # # # # # # # # @ 1 Q                                       ",
"                                              / 1 @ # # # # # # # # # # # # # # # @ : ~                                         ",
"                                            / 1 @ # # # # # # # # # # # # # # # @ - R                                           ",
"                                          ^ 2 @ # # # # # # # # # # # # # # # @ - R                                             ",
"                                    ^ U < 2 - @ # # # # # # # # # # # # # # @ - R                                               ",
"                                    a @ @ @ # # # # # # # # # # # # # # # # : R                                                 ",
"                                A ) 9.t O O @ # # # # # # # # @ # # # # # > e ^                                                 ",
"                            A G B N _ w.9.t * % O O O O O O O O @ O O # # # : T                                                 ",
"                          J G N N N m C _ 7.9.9.9.p p t s ! ' j.! & * + . X                                                     ",
"                          K N N N N N N m m M L _ 8.7.i.n..X.X-Xb.w.q.                                                          ",
"                        Z G N N N N N N N N B N m m N N S K K K L P                                                             ",
"                        Z S N N N N M B N N N N N N N N N N N N G Z                                                             ",
"                        K N N N N N B B N N b N N B N N n n n N N G A                                                           ",
"                      F G N N N N N B M B M x x b x b x x n n N N N B G H A                                                     ",
"                      G N N N N N N B M B B x x b n M N N B N N N N N N N B B G F V                                             ",
"                    A B N N N N N N N N N N n z n N N N N N N N N N N N N N N N N B G A                                         ",
"                    H B N n n N N N N N N N B n x M M M N N N N N N N N N N N N N N N B G F A                                   ",
"                    F B n x N N N N N N N N N N x g.h.g.I x x n N N N N N N N N N N N N N S Z                                   ",
"                    S N N x n N N N N N N N N N M I n.n.g.x x v n N N N N N N N N N N N G H                                     ",
"                    H B N N N N N N N N N N B b N N v x N N N N N N N N N N N N N N N N G A                                     ",
"                    J B N N N N N N N N N N N B N N N x x N N N N N N N N N N N N N N n K a =.%.$.@.@.@.$.>.                    ",
"                      G N N N N N N N N N N M B N N N N x x n n M M M M M M N M b v b K L 0 O.X.X.X.O.O.X.$.,.                  ",
"                      F N N N N N N N N N N B B N N N N M z x v v v v v v v v x c z l s 6 X.O.O.O.O.O.O.@.>.                    ",
"                    J G b n N N B B B B N N B M n n b b v n c w w 2 2 2 w w w w 0 6 u X.X.X.X.i y 7 5 #.                        ",
"          ;.#.#.#.d ( ! ! ` C x x b x b b b b b b n n N b c w 6 i u i i u y y y y 7 7 5 d 4                                     ",
"    ,.%.@.+.O.O.O.+.O.O.X.@.j ! ` L C Z x x x z c c l 2 q 6 6 3                                                                 ",
"  =.+.X.X.O.O.O.O.O.O.O.X.X.d O.i +.j j h g 4 0 0 6 i i u 7                                                                     ",
"  #.@.O.O.O.O.O.O.O.O.O.X.X.@.X.O.X.X.X.X.X.X.i u i y 5                                                                         ",
"    :.+.X.O.O.O.O.O.O.O.X.X.X.X.O.O.O.O.X.i u y 5                                                                               ",
"        5 7 y i i i i i i X.X.X.i u y 7 d                                                                                       ",
"                                                                                                                                "
};
